<mxfile host="app.diagrams.net" agent="Mozilla/5.0 (Windows NT 10.0; Win64; x64) AppleWebKit/537.36 (KHTML, like Gecko) Chrome/127.0.0.0 Safari/537.36" version="24.7.7">
  <diagram name="Page-1" id="sYPkrID64PMrVsYFagIT">
    <mxGraphModel dx="86" dy="563" grid="1" gridSize="10" guides="1" tooltips="1" connect="1" arrows="1" fold="1" page="1" pageScale="1" pageWidth="850" pageHeight="1100" math="0" shadow="0">
      <root>
        <mxCell id="0" />
        <mxCell id="1" parent="0" />
        <mxCell id="dKNTlX5QE3S49P5hsg3G-1" value="Actor" style="shape=umlActor;verticalLabelPosition=bottom;verticalAlign=top;html=1;outlineConnect=0;" parent="1" vertex="1">
          <mxGeometry x="1310" y="210" width="20" height="40" as="geometry" />
        </mxCell>
        <mxCell id="dKNTlX5QE3S49P5hsg3G-2" value="&lt;font style=&quot;font-size: 11px;&quot;&gt;Click chatbot logo&lt;/font&gt;" style="rounded=0;whiteSpace=wrap;html=1;" parent="1" vertex="1">
          <mxGeometry x="1390" y="210" width="100" height="40" as="geometry" />
        </mxCell>
        <mxCell id="dKNTlX5QE3S49P5hsg3G-3" value="&lt;font style=&quot;font-size: 11px;&quot;&gt;Launch chatbot&lt;/font&gt;" style="rounded=0;whiteSpace=wrap;html=1;" parent="1" vertex="1">
          <mxGeometry x="1540" y="210" width="100" height="40" as="geometry" />
        </mxCell>
        <mxCell id="dKNTlX5QE3S49P5hsg3G-4" value="&lt;font style=&quot;font-size: 11px;&quot;&gt;Ask Questions&lt;/font&gt;" style="rounded=0;whiteSpace=wrap;html=1;" parent="1" vertex="1">
          <mxGeometry x="1540" y="280" width="100" height="40" as="geometry" />
        </mxCell>
        <mxCell id="dKNTlX5QE3S49P5hsg3G-5" value="&lt;font style=&quot;font-size: 11px;&quot;&gt;Chatbot Processes&lt;/font&gt;" style="rounded=0;whiteSpace=wrap;html=1;" parent="1" vertex="1">
          <mxGeometry x="1540" y="350" width="100" height="40" as="geometry" />
        </mxCell>
        <mxCell id="dKNTlX5QE3S49P5hsg3G-6" value="&lt;font style=&quot;font-size: 11px;&quot;&gt;Provide Responses&lt;/font&gt;" style="rounded=0;whiteSpace=wrap;html=1;" parent="1" vertex="1">
          <mxGeometry x="1540" y="420" width="100" height="40" as="geometry" />
        </mxCell>
        <mxCell id="dKNTlX5QE3S49P5hsg3G-7" value="&lt;font style=&quot;font-size: 11px;&quot;&gt;Exit Bot&lt;/font&gt;" style="rounded=0;whiteSpace=wrap;html=1;" parent="1" vertex="1">
          <mxGeometry x="1380" y="420" width="100" height="40" as="geometry" />
        </mxCell>
        <mxCell id="dKNTlX5QE3S49P5hsg3G-8" value="" style="endArrow=classic;html=1;rounded=0;" parent="1" source="dKNTlX5QE3S49P5hsg3G-1" target="dKNTlX5QE3S49P5hsg3G-2" edge="1">
          <mxGeometry width="50" height="50" relative="1" as="geometry">
            <mxPoint x="1500" y="350" as="sourcePoint" />
            <mxPoint x="1550" y="300" as="targetPoint" />
          </mxGeometry>
        </mxCell>
        <mxCell id="dKNTlX5QE3S49P5hsg3G-9" value="" style="endArrow=classic;html=1;rounded=0;exitX=1;exitY=0.5;exitDx=0;exitDy=0;entryX=0;entryY=0.5;entryDx=0;entryDy=0;" parent="1" source="dKNTlX5QE3S49P5hsg3G-2" target="dKNTlX5QE3S49P5hsg3G-3" edge="1">
          <mxGeometry width="50" height="50" relative="1" as="geometry">
            <mxPoint x="1340" y="240" as="sourcePoint" />
            <mxPoint x="1400" y="240" as="targetPoint" />
          </mxGeometry>
        </mxCell>
        <mxCell id="dKNTlX5QE3S49P5hsg3G-10" value="" style="endArrow=classic;html=1;rounded=0;exitX=0.5;exitY=1;exitDx=0;exitDy=0;entryX=0.5;entryY=0;entryDx=0;entryDy=0;" parent="1" source="dKNTlX5QE3S49P5hsg3G-3" target="dKNTlX5QE3S49P5hsg3G-4" edge="1">
          <mxGeometry width="50" height="50" relative="1" as="geometry">
            <mxPoint x="1500" y="240" as="sourcePoint" />
            <mxPoint x="1550" y="240" as="targetPoint" />
          </mxGeometry>
        </mxCell>
        <mxCell id="dKNTlX5QE3S49P5hsg3G-11" value="" style="endArrow=classic;html=1;rounded=0;exitX=0.5;exitY=1;exitDx=0;exitDy=0;entryX=0.5;entryY=0;entryDx=0;entryDy=0;" parent="1" source="dKNTlX5QE3S49P5hsg3G-4" target="dKNTlX5QE3S49P5hsg3G-5" edge="1">
          <mxGeometry width="50" height="50" relative="1" as="geometry">
            <mxPoint x="1600" y="260" as="sourcePoint" />
            <mxPoint x="1600" y="290" as="targetPoint" />
          </mxGeometry>
        </mxCell>
        <mxCell id="dKNTlX5QE3S49P5hsg3G-12" value="" style="endArrow=classic;html=1;rounded=0;exitX=0.5;exitY=1;exitDx=0;exitDy=0;entryX=0.5;entryY=0;entryDx=0;entryDy=0;" parent="1" source="dKNTlX5QE3S49P5hsg3G-5" target="dKNTlX5QE3S49P5hsg3G-6" edge="1">
          <mxGeometry width="50" height="50" relative="1" as="geometry">
            <mxPoint x="1600" y="330" as="sourcePoint" />
            <mxPoint x="1600" y="360" as="targetPoint" />
          </mxGeometry>
        </mxCell>
        <mxCell id="dKNTlX5QE3S49P5hsg3G-13" value="" style="endArrow=classic;html=1;rounded=0;exitX=0;exitY=0.5;exitDx=0;exitDy=0;entryX=1;entryY=0.5;entryDx=0;entryDy=0;" parent="1" source="dKNTlX5QE3S49P5hsg3G-6" target="dKNTlX5QE3S49P5hsg3G-7" edge="1">
          <mxGeometry width="50" height="50" relative="1" as="geometry">
            <mxPoint x="1600" y="400" as="sourcePoint" />
            <mxPoint x="1600" y="430" as="targetPoint" />
          </mxGeometry>
        </mxCell>
      </root>
    </mxGraphModel>
  </diagram>
</mxfile>
